<?xml version="1.0" encoding="UTF-8"?>
<!DOCTYPE svg PUBLIC "-//W3C//DTD SVG 1.1//EN" "http://www.w3.org/Graphics/SVG/1.1/DTD/svg11.dtd">
<svg xmlns="http://www.w3.org/2000/svg" version="1.1" width="2000px" height="2250px" style="shape-rendering:geometricPrecision; text-rendering:geometricPrecision; image-rendering:optimizeQuality; fill-rule:evenodd; clip-rule:evenodd" xmlns:xlink="http://www.w3.org/1999/xlink">
<g><path style="opacity:1" fill="#be68d1" d="M 967.5,154.5 C 966.544,232.403 965.544,310.403 964.5,388.5C 960.831,387.249 957.164,387.249 953.5,388.5C 952.784,387.689 951.95,387.022 951,386.5C 948.276,387.687 945.443,388.353 942.5,388.5C 942.5,390.833 942.5,393.167 942.5,395.5C 921.704,397.129 901.037,399.462 880.5,402.5C 880.128,320.758 880.794,239.091 882.5,157.5C 910.958,154.959 939.291,153.959 967.5,154.5 Z"/></g>
<g><path style="opacity:1" fill="#ba68d3" d="M 967.5,154.5 C 975.167,154.5 982.833,154.5 990.5,154.5C 989.737,155.268 988.737,155.768 987.5,156C 988.83,194.455 989.497,233.122 989.5,272C 989.493,311.68 989.159,351.013 988.5,390C 989.267,391.47 989.933,392.97 990.5,394.5C 988.524,396.011 986.191,396.844 983.5,397C 979.848,397.499 976.182,397.665 972.5,397.5C 973.167,394.5 973.833,391.5 974.5,388.5C 971.148,389.707 967.814,389.707 964.5,388.5C 965.544,310.403 966.544,232.403 967.5,154.5 Z"/></g>
<g><path style="opacity:0.999" fill="#b768d5" d="M 990.5,154.5 C 1013.89,154.889 1037.23,156.222 1060.5,158.5C 1060.17,238.237 1060.5,317.904 1061.5,397.5C 1054.81,395.907 1047.81,394.074 1040.5,392C 1035.41,391.402 1030.58,390.568 1026,389.5C 1023.07,389.523 1020.24,390.023 1017.5,391C 1014.69,392.977 1012.02,395.144 1009.5,397.5C 1010.49,391.412 1007.99,387.079 1002,384.5C 998.91,385.863 995.744,387.03 992.5,388C 993.91,388.368 994.91,389.201 995.5,390.5C 994.395,392.611 992.729,393.945 990.5,394.5C 989.933,392.97 989.267,391.47 988.5,390C 989.159,351.013 989.493,311.68 989.5,272C 989.497,233.122 988.83,194.455 987.5,156C 988.737,155.768 989.737,155.268 990.5,154.5 Z M 1041.5,381.5 C 1044.97,380.875 1047.8,381.875 1050,384.5C 1050.48,383.552 1050.65,382.552 1050.5,381.5C 1052.91,381.137 1054.41,382.137 1055,384.5C 1055.77,386.403 1055.44,388.07 1054,389.5C 1049.48,386.993 1044.65,385.327 1039.5,384.5C 1040.19,383.482 1040.86,382.482 1041.5,381.5 Z"/></g>
<g><path style="opacity:0.999" fill="#c268cf" d="M 882.5,157.5 C 880.794,239.091 880.128,320.758 880.5,402.5C 878.197,408.362 874.863,409.362 870.5,405.5C 869.522,405.977 868.689,406.643 868,407.5C 867.244,405.191 867.744,403.191 869.5,401.5C 869.113,400.28 868.28,399.613 867,399.5C 861.186,404.325 854.686,407.992 847.5,410.5C 847.2,327.491 847.534,244.491 848.5,161.5C 847.5,161.5 846.5,161.5 845.5,161.5C 857.615,159.457 869.949,158.123 882.5,157.5 Z M 860.5,397.5 C 862.347,397.234 863.014,397.568 862.5,398.5C 860.902,399.485 859.235,399.651 857.5,399C 858.737,398.768 859.737,398.268 860.5,397.5 Z"/></g>
<g><path style="opacity:0.998" fill="#b268d8" d="M 1060.5,158.5 C 1084.26,160.847 1107.93,163.847 1131.5,167.5C 1131.5,244.167 1131.5,320.833 1131.5,397.5C 1129.7,398.046 1128.03,398.88 1126.5,400C 1128.63,401.381 1130.97,402.381 1133.5,403C 1115.86,401.808 1100.52,395.808 1087.5,385C 1084.9,384.231 1082.4,384.398 1080,385.5C 1078.42,388.991 1076.92,392.491 1075.5,396C 1070.96,397.379 1066.3,397.879 1061.5,397.5C 1060.5,317.904 1060.17,238.237 1060.5,158.5 Z M 1100.5,389.5 C 1100.74,388.903 1101.24,388.57 1102,388.5C 1106.85,389.587 1111.68,390.754 1116.5,392C 1127.21,396.134 1126.54,397.467 1114.5,396C 1109.66,394.079 1104.99,391.912 1100.5,389.5 Z"/></g>
<g><path style="opacity:1" fill="#c569cd" d="M 845.5,161.5 C 846.5,161.5 847.5,161.5 848.5,161.5C 847.534,244.491 847.2,327.491 847.5,410.5C 830.696,414.21 813.696,416.543 796.5,417.5C 795.177,334.553 795.177,251.553 796.5,168.5C 812.559,165.158 828.893,162.825 845.5,161.5 Z"/></g>
<g><path style="opacity:0.999" fill="#cb69ca" d="M 796.5,168.5 C 795.177,251.553 795.177,334.553 796.5,417.5C 763.118,428.849 730.118,441.182 697.5,454.5C 696.831,366.598 696.164,278.598 695.5,190.5C 728.706,181.125 762.373,173.792 796.5,168.5 Z"/></g>
<g><path style="opacity:1" fill="#af68da" d="M 1131.5,167.5 C 1137.86,167.92 1144.2,168.587 1150.5,169.5C 1150.5,243.833 1150.5,318.167 1150.5,392.5C 1145.27,392.348 1140.1,391.681 1135,390.5C 1133.74,390.85 1133.41,391.517 1134,392.5C 1135.25,393.211 1136.42,394.044 1137.5,395C 1135.71,396.319 1133.71,397.152 1131.5,397.5C 1131.5,320.833 1131.5,244.167 1131.5,167.5 Z"/></g>
<g><path style="opacity:1" fill="#ab68dd" d="M 1150.5,169.5 C 1178.19,173.225 1205.53,178.225 1232.5,184.5C 1233.21,185.404 1234.21,185.737 1235.5,185.5C 1236.16,268.379 1235.49,351.046 1233.5,433.5C 1206.9,425.352 1180.23,418.518 1153.5,413C 1152.27,411.413 1152.61,410.079 1154.5,409C 1158.18,406.718 1162.18,405.551 1166.5,405.5C 1175.62,406.694 1184.62,408.194 1193.5,410C 1189.4,407.533 1185.57,404.699 1182,401.5C 1180.8,399.323 1180.3,396.989 1180.5,394.5C 1175.17,393.833 1169.83,393.167 1164.5,392.5C 1164.76,399.03 1161.76,401.197 1155.5,399C 1153.63,396.806 1151.97,394.64 1150.5,392.5C 1150.5,318.167 1150.5,243.833 1150.5,169.5 Z"/></g>
<g><path style="opacity:0.999" fill="#a767df" d="M 1232.5,184.5 C 1246.74,186.947 1260.74,190.28 1274.5,194.5C 1273.5,278.096 1273.17,361.763 1273.5,445.5C 1260.23,441.297 1246.89,437.297 1233.5,433.5C 1235.49,351.046 1236.16,268.379 1235.5,185.5C 1234.21,185.737 1233.21,185.404 1232.5,184.5 Z"/></g>
<g><path style="opacity:1" fill="#cf69c8" d="M 695.5,190.5 C 696.164,278.598 696.831,366.598 697.5,454.5C 692.459,457.351 687.125,459.684 681.5,461.5C 682.722,372.433 682.722,283.433 681.5,194.5C 686.15,193.17 690.817,191.837 695.5,190.5 Z"/></g>
<g><path style="opacity:0.999" fill="#d169c6" d="M 681.5,194.5 C 682.722,283.433 682.722,372.433 681.5,461.5C 680.828,462.267 679.995,462.934 679,463.5C 676.087,461.079 673.254,461.412 670.5,464.5C 671.52,466.432 671.687,468.432 671,470.5C 666.733,473.363 664.233,477.363 663.5,482.5C 655.708,483.55 648.041,483.55 640.5,482.5C 640.167,483.167 639.833,483.833 639.5,484.5C 643.004,491.995 640.671,496.828 632.5,499C 628.39,499.85 624.39,501.016 620.5,502.5C 620.167,501.833 619.833,501.167 619.5,500.5C 621.692,492.811 626.025,486.645 632.5,482C 632.167,481.833 631.833,481.667 631.5,481.5C 625.074,486.606 618.407,491.273 611.5,495.5C 611.376,403.337 611.376,311.004 611.5,218.5C 634.258,209.135 657.592,201.135 681.5,194.5 Z M 643.5,467.5 C 644.043,467.56 644.376,467.893 644.5,468.5C 642.377,470.745 641.377,473.412 641.5,476.5C 637.856,475.685 634.189,474.852 630.5,474C 634.925,471.787 639.259,469.621 643.5,467.5 Z"/></g>
<g><path style="opacity:0.999" fill="#a467e1" d="M 1274.5,194.5 C 1290.87,198.255 1306.87,202.922 1322.5,208.5C 1321.17,250.495 1320.5,292.828 1320.5,335.5C 1320.5,378.237 1320.84,420.904 1321.5,463.5C 1305.57,457.302 1289.57,451.302 1273.5,445.5C 1273.17,361.763 1273.5,278.096 1274.5,194.5 Z"/></g>
<g><path style="opacity:1" fill="#9f67e4" d="M 1322.5,208.5 C 1347.16,215.831 1371.49,224.165 1395.5,233.5C 1396.58,232.635 1396.75,231.635 1396,230.5C 1392.92,227.707 1389.42,225.54 1385.5,224C 1395.74,226.608 1405.74,230.108 1415.5,234.5C 1414.9,325.903 1414.9,417.237 1415.5,508.5C 1402.73,502.617 1390.07,496.45 1377.5,490C 1376.22,489.316 1375.05,489.483 1374,490.5C 1373.03,489.322 1372.53,487.989 1372.5,486.5C 1355.9,478.731 1338.9,471.064 1321.5,463.5C 1320.84,420.904 1320.5,378.237 1320.5,335.5C 1320.5,292.828 1321.17,250.495 1322.5,208.5 Z"/></g>
<g><path style="opacity:0.999" fill="#d769c3" d="M 611.5,218.5 C 611.376,311.004 611.376,403.337 611.5,495.5C 607.058,498.772 602.058,501.105 596.5,502.5C 595.558,502.392 594.725,502.059 594,501.5C 585.464,509.705 576.631,517.538 567.5,525C 568.167,525.667 568.833,526.333 569.5,527C 573.366,527.502 577.033,528.502 580.5,530C 579.833,531 579.167,532 578.5,533C 567.441,536.087 556.441,538.753 545.5,541C 539.693,544.327 534.526,548.494 530,553.5C 529.365,551.365 529.699,549.365 531,547.5C 537.032,541.802 542.699,535.802 548,529.5C 548.667,528.167 548.667,526.833 548,525.5C 545.287,527.72 542.454,529.72 539.5,531.5C 540.072,478.67 540.406,425.836 540.5,373C 540.5,331.495 539.833,290.328 538.5,249.5C 562.044,237.426 586.378,227.092 611.5,218.5 Z"/></g>
<g><path style="opacity:1" fill="#9c67e6" d="M 1415.5,234.5 C 1421.83,237.167 1428.17,239.833 1434.5,242.5C 1433.83,334.832 1433.5,427.165 1433.5,519.5C 1427.46,515.819 1421.46,512.152 1415.5,508.5C 1414.9,417.237 1414.9,325.903 1415.5,234.5 Z"/></g>
<g><path style="opacity:1" fill="#9767e8" d="M 1434.5,242.5 C 1459.06,253.446 1483.06,265.446 1506.5,278.5C 1505.69,287.423 1505.19,296.423 1505,305.5C 1504.83,350 1504.67,394.5 1504.5,439C 1504.51,484.044 1505.17,528.878 1506.5,573.5C 1500.73,574.225 1495.39,573.059 1490.5,570C 1483.12,561.623 1476.12,552.956 1469.5,544C 1460.93,539.302 1453.26,534.302 1446.5,529C 1444.42,528.808 1442.42,528.308 1440.5,527.5C 1438.52,524.517 1436.18,521.851 1433.5,519.5C 1433.5,427.165 1433.83,334.832 1434.5,242.5 Z"/></g>
<g><path style="opacity:1" fill="#d969c1" d="M 538.5,249.5 C 539.833,290.328 540.5,331.495 540.5,373C 540.406,425.836 540.072,478.67 539.5,531.5C 535.021,534.919 530.688,538.586 526.5,542.5C 525.915,446.903 525.915,351.237 526.5,255.5C 530.182,252.992 534.182,250.992 538.5,249.5 Z"/></g>
<g><path style="opacity:0.999" fill="#db69c0" d="M 526.5,255.5 C 525.915,351.237 525.915,446.903 526.5,542.5C 516.106,551.892 506.439,561.892 497.5,572.5C 497.162,522.471 497.162,472.138 497.5,421.5C 497.5,371.162 496.833,321.162 495.5,271.5C 505.355,265.405 515.688,260.071 526.5,255.5 Z"/></g>
<g><path style="opacity:1" fill="#de6abe" d="M 495.5,271.5 C 496.833,321.162 497.5,371.162 497.5,421.5C 497.162,472.138 497.162,522.471 497.5,572.5C 479.183,596.146 460.516,619.48 441.5,642.5C 440.582,532.496 440.249,422.496 440.5,312.5C 444.262,310.042 445.262,306.708 443.5,302.5C 460.2,291.148 477.533,280.815 495.5,271.5 Z"/></g>
<g><path style="opacity:1" fill="#9266eb" d="M 1506.5,278.5 C 1532.38,292.93 1557.38,308.596 1581.5,325.5C 1580.67,422.43 1580.17,519.43 1580,616.5C 1579.83,631.006 1579.33,645.339 1578.5,659.5C 1561.01,639.325 1543.01,619.325 1524.5,599.5C 1518.13,591.12 1512.13,582.453 1506.5,573.5C 1505.17,528.878 1504.51,484.044 1504.5,439C 1504.67,394.5 1504.83,350 1505,305.5C 1505.19,296.423 1505.69,287.423 1506.5,278.5 Z"/></g>
<g><path style="opacity:1" fill="#e26abc" d="M 440.5,312.5 C 440.249,422.496 440.582,532.496 441.5,642.5C 437.17,646.998 433.003,651.665 429,656.5C 427.954,655.228 427.454,653.728 427.5,652C 429.248,644.534 429.582,637.034 428.5,629.5C 425.516,631.984 422.682,634.65 420,637.5C 412.592,646.065 405.425,654.732 398.5,663.5C 398.558,556.168 398.225,448.834 397.5,341.5C 411.278,331.103 425.612,321.437 440.5,312.5 Z"/></g>
<g><path style="opacity:0.999" fill="#8c66ef" d="M 1581.5,325.5 C 1615.06,347.626 1646.39,372.626 1675.5,400.5C 1674.85,552.991 1674.18,705.324 1673.5,857.5C 1671.06,848.686 1667.89,840.019 1664,831.5C 1661.09,827.603 1657.93,823.936 1654.5,820.5C 1657.86,819.1 1661.03,819.433 1664,821.5C 1665.51,826.548 1667.18,831.548 1669,836.5C 1669.41,836.957 1669.91,837.291 1670.5,837.5C 1673.2,827.739 1670.86,819.239 1663.5,812C 1665.31,812.046 1666.98,811.88 1668.5,811.5C 1665.95,807.564 1665.95,803.731 1668.5,800C 1662.65,794.869 1657.48,795.369 1653,801.5C 1652.33,799.833 1652.33,798.167 1653,796.5C 1655.14,794.194 1656.64,791.527 1657.5,788.5C 1657.14,783.952 1654.98,782.618 1651,784.5C 1649.58,788.345 1647.41,791.678 1644.5,794.5C 1641.95,789.082 1641.12,783.416 1642,777.5C 1643.99,775.268 1646.49,773.768 1649.5,773C 1645.07,768.84 1640.24,768.007 1635,770.5C 1633,769.833 1631,769.167 1629,768.5C 1628.18,765.036 1628.52,761.702 1630,758.5C 1632.54,757.124 1634.54,757.79 1636,760.5C 1635.51,755.687 1634.18,751.021 1632,746.5C 1627.44,739.105 1621.94,732.439 1615.5,726.5C 1617.42,725.692 1619.42,725.192 1621.5,725C 1619.04,723.079 1617.04,720.746 1615.5,718C 1616.33,717.085 1617.33,716.419 1618.5,716C 1612.88,709.938 1608.38,703.104 1605,695.5C 1603.68,695.201 1602.18,695.034 1600.5,695C 1600.83,694.667 1601.17,694.333 1601.5,694C 1594.39,682.068 1586.72,670.568 1578.5,659.5C 1579.33,645.339 1579.83,631.006 1580,616.5C 1580.17,519.43 1580.67,422.43 1581.5,325.5 Z"/></g>
<g><path style="opacity:1" fill="#e56aba" d="M 397.5,341.5 C 398.225,448.834 398.558,556.168 398.5,663.5C 377.169,691.502 357.835,720.835 340.5,751.5C 341.027,628.932 341.694,506.432 342.5,384C 342.272,383.601 341.938,383.435 341.5,383.5C 359.313,368.353 377.979,354.353 397.5,341.5 Z"/></g>
<g><path style="opacity:1" fill="#ea6ab7" d="M 341.5,383.5 C 341.938,383.435 342.272,383.601 342.5,384C 341.694,506.432 341.027,628.932 340.5,751.5C 299.978,827.728 271.978,908.394 256.5,993.5C 255.512,816.333 255.512,639 256.5,461.5C 282.93,433.402 311.263,407.402 341.5,383.5 Z"/></g>
<g><path style="opacity:0.999" fill="#8766f2" d="M 1675.5,400.5 C 1691.47,414.802 1706.8,429.802 1721.5,445.5C 1721.3,638.528 1721.63,831.528 1722.5,1024.5C 1718.71,1024.48 1715.21,1025.48 1712,1027.5C 1711.83,1027.17 1711.67,1026.83 1711.5,1026.5C 1713.19,1024.45 1714.36,1022.11 1715,1019.5C 1715.61,1011.62 1717.11,1003.95 1719.5,996.5C 1717.82,995.218 1715.99,994.218 1714,993.5C 1709.6,984.789 1705.1,976.122 1700.5,967.5C 1703.3,958.448 1706.3,949.448 1709.5,940.5C 1706.43,938.536 1703.6,936.202 1701,933.5C 1698.86,928.084 1696.53,922.751 1694,917.5C 1692.25,915.251 1690.09,913.584 1687.5,912.5C 1689.15,911.852 1690.48,910.852 1691.5,909.5C 1687.83,903.604 1689.17,899.437 1695.5,897C 1690.12,895.398 1685.96,892.231 1683,887.5C 1677.98,878.084 1674.81,868.084 1673.5,857.5C 1674.18,705.324 1674.85,552.991 1675.5,400.5 Z"/></g>
<g><path style="opacity:1" fill="#8466f4" d="M 1721.5,445.5 C 1735.58,458.91 1748.58,473.244 1760.5,488.5C 1759.25,860.5 1758.25,1232.67 1757.5,1605C 1757.67,1659.83 1757.83,1714.67 1758,1769.5C 1758.82,1768.18 1759.98,1767.51 1761.5,1767.5C 1748.52,1782.45 1734.85,1796.78 1720.5,1810.5C 1719.68,1635.75 1719.68,1461.09 1720.5,1286.5C 1718.98,1284.54 1718.32,1282.2 1718.5,1279.5C 1721.73,1270.56 1719.39,1263.72 1711.5,1259C 1713.33,1258.73 1714.83,1257.89 1716,1256.5C 1717.41,1251.6 1719.57,1247.1 1722.5,1243C 1724.47,1242.5 1726.47,1242.34 1728.5,1242.5C 1727.06,1231.73 1726.39,1220.89 1726.5,1210C 1727.17,1186.48 1728.33,1162.98 1730,1139.5C 1730.67,1122.17 1730.67,1104.83 1730,1087.5C 1729.41,1074.9 1726.91,1062.74 1722.5,1051C 1723.33,1050.17 1724.17,1049.33 1725,1048.5C 1725.21,1044.08 1725.87,1039.75 1727,1035.5C 1727.95,1033.43 1729.45,1031.93 1731.5,1031C 1729.19,1027.85 1726.19,1025.68 1722.5,1024.5C 1721.63,831.528 1721.3,638.528 1721.5,445.5 Z"/></g>
<g><path style="opacity:0.999" fill="#f06bb3" d="M 256.5,461.5 C 255.512,639 255.512,816.333 256.5,993.5C 250.714,1025.67 246.047,1058 242.5,1090.5C 241.178,1090.67 240.011,1090.34 239,1089.5C 236.563,1086.62 235.23,1083.29 235,1079.5C 234.893,1069.14 235.226,1058.81 236,1048.5C 233.667,1052.83 231.333,1057.17 229,1061.5C 227.758,1062.87 226.258,1063.87 224.5,1064.5C 223.182,1107.13 222.682,1149.79 223,1192.5C 223.764,1205.62 225.431,1218.62 228,1231.5C 228.803,1234.24 229.803,1236.91 231,1239.5C 233,1228.83 235,1218.17 237,1207.5C 240.145,1204.92 243.145,1205.25 246,1208.5C 248.689,1201.06 250.355,1193.39 251,1185.5C 251.215,1168.16 251.215,1150.83 251,1133.5C 251.671,1132.75 252.504,1132.41 253.5,1132.5C 254.165,1207.6 254.499,1282.76 254.5,1358C 254.5,1433.17 253.833,1508 252.5,1582.5C 217.636,1540.82 189.302,1494.82 167.5,1444.5C 168.833,1379.84 169.5,1314.84 169.5,1249.5C 169.906,1024.16 170.572,798.829 171.5,573.5C 171.499,569.651 171.165,565.984 170.5,562.5C 196.226,526.432 224.893,492.765 256.5,461.5 Z"/></g>
<g><path style="opacity:1" fill="#8066f7" d="M 1760.5,488.5 C 1798.17,532.514 1831.17,579.847 1859.5,630.5C 1858.42,955.168 1857.42,1280 1856.5,1605C 1856.5,1616.01 1856.83,1626.84 1857.5,1637.5C 1829.74,1683.93 1797.74,1727.27 1761.5,1767.5C 1759.98,1767.51 1758.82,1768.18 1758,1769.5C 1757.83,1714.67 1757.67,1659.83 1757.5,1605C 1758.25,1232.67 1759.25,860.5 1760.5,488.5 Z"/></g>
<g><path style="opacity:1" fill="#f66bb0" d="M 170.5,562.5 C 171.165,565.984 171.499,569.651 171.5,573.5C 170.572,798.829 169.906,1024.16 169.5,1249.5C 169.5,1314.84 168.833,1379.84 167.5,1444.5C 152.454,1408.74 137.121,1373.07 121.5,1337.5C 121,1337.17 120.5,1336.83 120,1336.5C 118.56,1338.37 116.893,1340.04 115,1341.5C 112.019,1338.54 111.852,1335.37 114.5,1332C 110.754,1326.67 107.92,1320.84 106,1314.5C 95.2675,1274.77 87.7675,1234.44 83.5,1193.5C 84.8333,1143.17 84.8333,1092.83 83.5,1042.5C 84.2941,1034.65 85.2941,1026.81 86.5,1019C 86.519,1017.21 86.1857,1016.71 85.5,1017.5C 85.1453,965.018 85.1453,912.352 85.5,859.5C 85.4999,809.495 84.8333,759.829 83.5,710.5C 107.962,658.205 136.962,608.872 170.5,562.5 Z M 114.5,1320.5 C 116.909,1323.58 117.076,1326.91 115,1330.5C 113.552,1327.15 113.385,1323.82 114.5,1320.5 Z"/></g>
<g><path style="opacity:1" fill="#7c66f8" d="M 1859.5,630.5 C 1861.15,633.131 1862.82,635.797 1864.5,638.5C 1863.14,936.999 1862.14,1235.67 1861.5,1534.5C 1861.5,1566.17 1862.17,1597.51 1863.5,1628.5C 1861.73,1631.71 1859.73,1634.71 1857.5,1637.5C 1856.83,1626.84 1856.5,1616.01 1856.5,1605C 1857.42,1280 1858.42,955.168 1859.5,630.5 Z"/></g>
<g><path style="opacity:1" fill="#7965fb" d="M 1864.5,638.5 C 1876.69,659.544 1887.86,681.211 1898,703.5C 1900.18,708.614 1903.51,709.947 1908,707.5C 1921.84,736.505 1934,766.171 1944.5,796.5C 1943.54,964.666 1942.87,1133 1942.5,1301.5C 1942.5,1353.5 1943.17,1405.17 1944.5,1456.5C 1922.86,1516.43 1895.86,1573.77 1863.5,1628.5C 1862.17,1597.51 1861.5,1566.17 1861.5,1534.5C 1862.14,1235.67 1863.14,936.999 1864.5,638.5 Z"/></g>
<g><path style="opacity:0.997" fill="#b268d8" d="M 1131.5,674.5 C 1131.16,700.32 1130.16,725.987 1128.5,751.5C 1105.24,749.148 1081.91,749.481 1058.5,752.5C 1059.83,726.833 1059.83,701.167 1058.5,675.5C 1082.79,674.519 1107.12,674.186 1131.5,674.5 Z"/></g>
<g><path style="opacity:0.999" fill="#b768d5" d="M 1058.5,675.5 C 1059.83,701.167 1059.83,726.833 1058.5,752.5C 1034.43,755.6 1011.43,762.266 989.5,772.5C 988.841,742.736 988.174,713.069 987.5,683.5C 1010.82,678.962 1034.49,676.295 1058.5,675.5 Z"/></g>
<g><path style="opacity:1" fill="#af68da" d="M 1131.5,674.5 C 1137.17,674.5 1142.83,674.5 1148.5,674.5C 1149.49,701.092 1149.82,727.759 1149.5,754.5C 1142.59,752.959 1135.59,751.959 1128.5,751.5C 1130.16,725.987 1131.16,700.32 1131.5,674.5 Z"/></g>
<g><path style="opacity:1" fill="#ab68dd" d="M 1148.5,674.5 C 1177.34,675.514 1206.01,678.181 1234.5,682.5C 1234.83,756.738 1234.5,830.904 1233.5,905C 1243.49,905.5 1253.49,905.666 1263.5,905.5C 1248.96,906.824 1234.29,906.824 1219.5,905.5C 1216.7,907.425 1213.7,907.425 1210.5,905.5C 1209.7,903.922 1209.2,902.256 1209,900.5C 1208.94,887.889 1208.11,875.389 1206.5,863C 1206.94,859.429 1207.27,855.596 1207.5,851.5C 1206.49,825.641 1205.32,799.975 1204,774.5C 1186.88,764.96 1168.71,758.294 1149.5,754.5C 1149.82,727.759 1149.49,701.092 1148.5,674.5 Z"/></g>
<g><path style="opacity:0.999" fill="#a767df" d="M 1234.5,682.5 C 1248.79,684.323 1262.79,686.989 1276.5,690.5C 1275.17,690.5 1273.83,690.5 1272.5,690.5C 1272.78,761.84 1272.44,833.173 1271.5,904.5C 1271.5,904.833 1271.5,905.167 1271.5,905.5C 1269.15,906.408 1266.48,906.408 1263.5,905.5C 1253.49,905.666 1243.49,905.5 1233.5,905C 1234.5,830.904 1234.83,756.738 1234.5,682.5 Z"/></g>
<g><path style="opacity:0.999" fill="#bb68d3" d="M 987.5,683.5 C 988.174,713.069 988.841,742.736 989.5,772.5C 981.005,776.913 972.672,781.58 964.5,786.5C 965.16,753.483 964.493,720.816 962.5,688.5C 970.589,686.215 978.923,684.549 987.5,683.5 Z"/></g>
<g><path style="opacity:0.999" fill="#be68d1" d="M 962.5,688.5 C 964.493,720.816 965.16,753.483 964.5,786.5C 941.292,801.872 921.459,820.872 905,843.5C 896.177,856.477 888.01,869.81 880.5,883.5C 880.158,827.453 879.158,771.453 877.5,715.5C 904.853,703.494 933.187,694.494 962.5,688.5 Z"/></g>
<g><path style="opacity:0.999" fill="#a467e1" d="M 1276.5,690.5 C 1291.49,692.916 1306.15,696.249 1320.5,700.5C 1319.5,768.331 1319.17,836.331 1319.5,904.5C 1303.5,904.5 1287.5,904.5 1271.5,904.5C 1272.44,833.173 1272.78,761.84 1272.5,690.5C 1273.83,690.5 1275.17,690.5 1276.5,690.5 Z"/></g>
<g><path style="opacity:0.999" fill="#a167e3" d="M 1320.5,700.5 C 1339.75,704.978 1359.08,709.145 1378.5,713C 1380.78,713.233 1382.78,714.066 1384.5,715.5C 1371.73,779.167 1358.9,842.834 1346,906.5C 1321.24,905.506 1296.41,905.172 1271.5,905.5C 1271.5,905.167 1271.5,904.833 1271.5,904.5C 1287.5,904.5 1303.5,904.5 1319.5,904.5C 1319.17,836.331 1319.5,768.331 1320.5,700.5 Z"/></g>
<g><path style="opacity:0.999" fill="#fb6bad" d="M 83.5,710.5 C 84.8333,759.829 85.4999,809.495 85.5,859.5C 85.1453,912.352 85.1453,965.018 85.5,1017.5C 78.5443,1043.36 74.711,1069.69 74,1096.5C 74.2243,1155.84 75.0576,1215.17 76.5,1274.5C 76.0276,1276.53 75.0276,1278.2 73.5,1279.5C 70.4731,1274.93 68.3064,1269.93 67,1264.5C 63.9878,1248.09 60.6545,1231.76 57,1215.5C 58.0325,1249.1 61.6992,1282.43 68,1315.5C 73.2077,1341.66 79.0411,1367.66 85.5,1393.5C 84.8333,1413.17 84.1667,1432.83 83.5,1452.5C 79.2036,1444.29 75.8703,1435.62 73.5,1426.5C 70.0696,1425.76 68.403,1427.09 68.5,1430.5C 69.73,1436.02 71.0633,1441.52 72.5,1447C 72.3333,1447.83 72.1667,1448.67 72,1449.5C 71.3333,1450.83 70.6667,1450.83 70,1449.5C 27.8779,1358.35 4.37789,1263.02 -0.5,1163.5C -0.5,1135.83 -0.5,1108.17 -0.5,1080.5C 3.77088,1008.28 14.7709,936.949 32.5,866.5C 32.3333,865.5 32.1667,864.5 32,863.5C 30.3308,864.846 29.1642,866.513 28.5,868.5C 27.6618,868.158 27.3284,867.492 27.5,866.5C 40.8205,812.536 59.4871,760.536 83.5,710.5 Z"/></g>
<g><path style="opacity:0.998" fill="#c268cf" d="M 877.5,715.5 C 879.158,771.453 880.158,827.453 880.5,883.5C 866.661,912.682 855.994,943.015 848.5,974.5C 846.834,893.672 845.834,812.672 845.5,731.5C 855.854,725.657 866.52,720.323 877.5,715.5 Z"/></g>
<g><path style="opacity:0.999" fill="#c569cd" d="M 845.5,731.5 C 845.834,812.672 846.834,893.672 848.5,974.5C 836.757,1023.78 829.923,1073.78 828,1124.5C 824.191,1184.85 827.191,1244.85 837,1304.5C 840.014,1318.89 843.181,1333.22 846.5,1347.5C 846.171,1419.1 845.171,1490.44 843.5,1561.5C 825.691,1557.08 808.691,1550.75 792.5,1542.5C 793.459,1344.24 794.126,1145.9 794.5,947.5C 794.5,886.496 793.833,825.83 792.5,765.5C 809.088,752.597 826.755,741.263 845.5,731.5 Z"/></g>
<g><path style="opacity:1" fill="#ca69ca" d="M 792.5,765.5 C 793.833,825.83 794.5,886.496 794.5,947.5C 794.126,1145.9 793.459,1344.24 792.5,1542.5C 753.565,1522.65 720.231,1494.99 692.5,1459.5C 693.833,1376 694.5,1292.17 694.5,1208C 694.944,1096.33 694.944,984.831 694.5,873.5C 720.253,831.406 752.92,795.406 792.5,765.5 Z"/></g>
<g><path style="opacity:1" fill="#7565fd" d="M 1944.5,796.5 C 1976.59,888.939 1994.92,983.939 1999.5,1081.5C 1999.5,1111.17 1999.5,1140.83 1999.5,1170.5C 1994.8,1268.34 1976.47,1363.67 1944.5,1456.5C 1943.17,1405.17 1942.5,1353.5 1942.5,1301.5C 1942.87,1133 1943.54,964.666 1944.5,796.5 Z"/></g>
<g><path style="opacity:0.416" fill="#e869ba" d="M 27.5,866.5 C 27.3284,867.492 27.6618,868.158 28.5,868.5C 27.4833,871.575 26.3166,874.575 25,877.5C 25.0583,873.604 25.8917,869.938 27.5,866.5 Z"/></g>
<g><path style="opacity:1" fill="#ce69c8" d="M 694.5,873.5 C 694.944,984.831 694.944,1096.33 694.5,1208C 694.5,1292.17 693.833,1376 692.5,1459.5C 687.079,1452.99 682.412,1445.99 678.5,1438.5C 679.327,1433.35 679.827,1428.02 680,1422.5C 680.667,1248.17 680.667,1073.83 680,899.5C 679.617,900.056 679.117,900.389 678.5,900.5C 683.045,890.973 688.378,881.973 694.5,873.5 Z"/></g>
<g><path style="opacity:0.999" fill="#d169c6" d="M 678.5,1438.5 C 658.909,1408.28 644.409,1375.61 635,1340.5C 615.773,1270 609.773,1198.33 617,1125.5C 621.332,1058.17 636.666,993.506 663,931.5C 667.67,920.827 672.836,910.494 678.5,900.5C 679.117,900.389 679.617,900.056 680,899.5C 680.667,1073.83 680.667,1248.17 680,1422.5C 679.827,1428.02 679.327,1433.35 678.5,1438.5 Z"/></g>
<g><path style="opacity:0.991" fill="#f86baf" d="M 83.5,1042.5 C 84.8333,1092.83 84.8333,1143.17 83.5,1193.5C 78.2807,1143.16 78.2807,1092.83 83.5,1042.5 Z"/></g>
<g><path style="opacity:0.999" fill="#ea6ab7" d="M 340.5,1538.5 C 339.545,1595.67 338.879,1653 338.5,1710.5C 332.19,1701.23 326.356,1691.56 321,1681.5C 320.291,1677.13 320.458,1672.8 321.5,1668.5C 320.936,1665.19 319.269,1662.69 316.5,1661C 316.833,1660.67 317.167,1660.33 317.5,1660C 307.446,1650.24 299.612,1639.41 294,1627.5C 287.522,1621.2 281.688,1615.2 276.5,1609.5C 276.167,1608.5 275.5,1607.83 274.5,1607.5C 267.138,1599.14 259.804,1590.81 252.5,1582.5C 253.833,1508 254.5,1433.17 254.5,1358C 254.499,1282.76 254.165,1207.6 253.5,1132.5C 255.583,1131.97 257.417,1130.97 259,1129.5C 262.743,1110.44 269.91,1092.77 280.5,1076.5C 280.833,1077 281.167,1077.5 281.5,1078C 280.467,1089 278.467,1099.83 275.5,1110.5C 276.378,1113.13 277.045,1115.8 277.5,1118.5C 274.873,1119.09 272.206,1119.42 269.5,1119.5C 269.667,1130.84 269.5,1142.17 269,1153.5C 266.203,1178.27 264.37,1203.1 263.5,1228C 262.961,1240.35 264.127,1252.52 267,1264.5C 268.252,1263 269.252,1261.33 270,1259.5C 270.727,1253.31 270.561,1247.14 269.5,1241C 269.401,1236.54 271.068,1233.04 274.5,1230.5C 275.971,1231.38 276.804,1232.71 277,1234.5C 281.616,1256.62 282.116,1278.78 278.5,1301C 288.603,1331.39 292.437,1362.56 290,1394.5C 296.471,1406.44 302.138,1418.78 307,1431.5C 318.327,1467.15 329.494,1502.82 340.5,1538.5 Z"/></g>
<g><path style="opacity:0.991" fill="#a467e1" d="M 1148.5,1128.5 C 1219.17,1127.84 1289.51,1128.5 1359.5,1130.5C 1345.57,1129.35 1331.57,1129.19 1317.5,1130C 1318.17,1227.93 1318.83,1325.76 1319.5,1423.5C 1315.85,1454.56 1311.68,1485.56 1307,1516.5C 1294.54,1518.2 1282.04,1519.87 1269.5,1521.5C 1270.32,1500.24 1270.82,1478.91 1271,1457.5C 1271.5,1348.5 1271.67,1239.5 1271.5,1130.5C 1263.51,1129.9 1255.51,1129.57 1247.5,1129.5C 1216.5,1129.5 1185.5,1129.5 1154.5,1129.5C 1152.26,1129.79 1150.26,1129.46 1148.5,1128.5 Z"/></g>
<g><path style="opacity:0.999" fill="#b668d6" d="M 1057.5,1128.5 C 1059.16,1158.35 1058.83,1188.01 1056.5,1217.5C 1047.22,1216.28 1037.89,1215.62 1028.5,1215.5C 1031.59,1186.47 1034.92,1157.47 1038.5,1128.5C 1044.83,1128.5 1051.17,1128.5 1057.5,1128.5 Z"/></g>
<g><path style="opacity:0.999" fill="#b268d9" d="M 1057.5,1128.5 C 1080.83,1128.5 1104.17,1128.5 1127.5,1128.5C 1128.83,1160.17 1130.17,1191.83 1131.5,1223.5C 1106.54,1221.11 1081.54,1219.11 1056.5,1217.5C 1058.83,1188.01 1059.16,1158.35 1057.5,1128.5 Z"/></g>
<g><path style="opacity:1" fill="#af68db" d="M 1127.5,1128.5 C 1134.5,1128.5 1141.5,1128.5 1148.5,1128.5C 1150.26,1129.46 1152.26,1129.79 1154.5,1129.5C 1152.74,1130.46 1150.74,1130.79 1148.5,1130.5C 1148.67,1250.83 1148.5,1371.17 1148,1491.5C 1147.82,1510.57 1147.32,1529.57 1146.5,1548.5C 1140.89,1549.98 1135.23,1551.32 1129.5,1552.5C 1129.8,1490.42 1129.47,1428.42 1128.5,1366.5C 1134.5,1319.17 1140.5,1271.83 1146.5,1224.5C 1141.52,1223.95 1136.52,1223.61 1131.5,1223.5C 1130.17,1191.83 1128.83,1160.17 1127.5,1128.5 Z"/></g>
<g><path style="opacity:1" fill="#ab68dd" d="M 1154.5,1129.5 C 1185.5,1129.5 1216.5,1129.5 1247.5,1129.5C 1243.03,1130.49 1238.36,1130.82 1233.5,1130.5C 1234.16,1263.04 1233.5,1395.38 1231.5,1527.5C 1203.39,1534.94 1175.06,1541.94 1146.5,1548.5C 1147.32,1529.57 1147.82,1510.57 1148,1491.5C 1148.5,1371.17 1148.67,1250.83 1148.5,1130.5C 1150.74,1130.79 1152.74,1130.46 1154.5,1129.5 Z"/></g>
<g><path style="opacity:1" fill="#a767df" d="M 1247.5,1129.5 C 1255.51,1129.57 1263.51,1129.9 1271.5,1130.5C 1271.67,1239.5 1271.5,1348.5 1271,1457.5C 1270.82,1478.91 1270.32,1500.24 1269.5,1521.5C 1256.83,1523.5 1244.17,1525.5 1231.5,1527.5C 1233.5,1395.38 1234.16,1263.04 1233.5,1130.5C 1238.36,1130.82 1243.03,1130.49 1247.5,1129.5 Z"/></g>
<g><path style="opacity:0.999" fill="#a167e3" d="M 1359.5,1130.5 C 1346.25,1228.2 1332.91,1325.87 1319.5,1423.5C 1318.83,1325.76 1318.17,1227.93 1317.5,1130C 1331.57,1129.19 1345.57,1129.35 1359.5,1130.5 Z"/></g>
<g><path style="opacity:0.282" fill="#e068bf" d="M 76.5,1274.5 C 76.8515,1277.07 76.3515,1279.41 75,1281.5C 74.2828,1280.96 73.7828,1280.29 73.5,1279.5C 75.0276,1278.2 76.0276,1276.53 76.5,1274.5 Z"/></g>
<g><path style="opacity:0.998" fill="#8766f2" d="M 1720.5,1286.5 C 1719.68,1461.09 1719.68,1635.75 1720.5,1810.5C 1705.13,1826.21 1689.13,1841.21 1672.5,1855.5C 1672.83,1751.07 1672.5,1646.4 1671.5,1541.5C 1674.53,1536.15 1677.53,1530.82 1680.5,1525.5C 1677.94,1527.64 1675.61,1529.97 1673.5,1532.5C 1672.84,1489.74 1672.17,1447.07 1671.5,1404.5C 1675.09,1397.22 1677.59,1389.55 1679,1381.5C 1679.81,1375.92 1679.64,1370.42 1678.5,1365C 1686.31,1362.35 1692.81,1357.85 1698,1351.5C 1699.93,1348.05 1701.26,1344.39 1702,1340.5C 1703.51,1330.19 1704.85,1319.86 1706,1309.5C 1707.82,1299.85 1712.65,1292.18 1720.5,1286.5 Z M 1712.5,1478.5 C 1709.24,1486.44 1706.08,1494.44 1703,1502.5C 1696.68,1506.66 1691.18,1511.66 1686.5,1517.5C 1695.17,1504.49 1703.84,1491.49 1712.5,1478.5 Z M 1686.5,1517.5 C 1686.26,1519.4 1685.26,1520.74 1683.5,1521.5C 1683.74,1519.6 1684.74,1518.26 1686.5,1517.5 Z M 1683.5,1521.5 C 1683.26,1523.4 1682.26,1524.74 1680.5,1525.5C 1680.74,1523.6 1681.74,1522.26 1683.5,1521.5 Z"/></g>
<g><path style="opacity:0.999" fill="#c268cf" d="M 846.5,1347.5 C 854.383,1373.94 865.05,1399.28 878.5,1423.5C 878.172,1472.24 878.505,1520.91 879.5,1569.5C 870.895,1568.41 862.395,1566.75 854,1564.5C 853.228,1564.64 852.561,1564.98 852,1565.5C 849.376,1563.64 846.543,1562.31 843.5,1561.5C 845.171,1490.44 846.171,1419.1 846.5,1347.5 Z"/></g>
<g><path style="opacity:0.995" fill="#b268d9" d="M 1128.5,1366.5 C 1129.47,1428.42 1129.8,1490.42 1129.5,1552.5C 1106.06,1558.19 1082.39,1562.85 1058.5,1566.5C 1058.82,1538.76 1058.49,1511.09 1057.5,1483.5C 1077.2,1480.74 1096.53,1476.41 1115.5,1470.5C 1120,1435.86 1124.33,1401.19 1128.5,1366.5 Z"/></g>
<g><path style="opacity:0.996" fill="#f66bb0" d="M 85.5,1393.5 C 105.462,1461.94 131.462,1528.11 163.5,1592C 163.333,1592.5 163.167,1593 163,1593.5C 156.46,1589.97 150.794,1585.3 146,1579.5C 140.941,1572.77 136.274,1565.77 132,1558.5C 118.257,1528.68 104.257,1499.01 90,1469.5C 87.5287,1463.91 85.362,1458.25 83.5,1452.5C 84.1667,1432.83 84.8333,1413.17 85.5,1393.5 Z"/></g>
<g><path style="opacity:0.996" fill="#8c66ef" d="M 1671.5,1404.5 C 1672.17,1447.07 1672.84,1489.74 1673.5,1532.5C 1656.39,1554.36 1638.56,1575.69 1620,1596.5C 1613.83,1604.67 1607.67,1612.83 1601.5,1621C 1595.72,1621.13 1590.05,1620.3 1584.5,1618.5C 1582.94,1619.07 1581.44,1619.74 1580,1620.5C 1579.65,1622.92 1580.82,1623.92 1583.5,1623.5C 1585.91,1623.59 1587.74,1622.59 1589,1620.5C 1589.17,1621 1589.33,1621.5 1589.5,1622C 1586.75,1627.57 1583.08,1632.41 1578.5,1636.5C 1577.83,1629.83 1577.17,1623.17 1576.5,1616.5C 1580.73,1613.78 1584.56,1610.45 1588,1606.5C 1593,1597.17 1598.5,1588.17 1604.5,1579.5C 1609.6,1574.61 1615.6,1571.28 1622.5,1569.5C 1623.04,1568.25 1623.71,1567.09 1624.5,1566C 1622.68,1563.18 1620.51,1560.68 1618,1558.5C 1617.67,1557.17 1617.33,1555.83 1617,1554.5C 1604,1560.83 1594.33,1570.5 1588,1583.5C 1585.67,1584.83 1583.33,1584.83 1581,1583.5C 1580.69,1580.41 1581.19,1577.41 1582.5,1574.5C 1582.06,1573.26 1581.39,1572.26 1580.5,1571.5C 1578.85,1564.36 1577.85,1557.03 1577.5,1549.5C 1580.23,1546.38 1582.73,1543.04 1585,1539.5C 1588.44,1525.61 1594.78,1513.28 1604,1502.5C 1614.51,1492.66 1623.51,1481.66 1631,1469.5C 1631.83,1466.5 1632.67,1463.5 1633.5,1460.5C 1635.5,1461.5 1637.5,1462.5 1639.5,1463.5C 1640.32,1460.55 1640.82,1457.55 1641,1454.5C 1644.07,1447.95 1646.74,1441.28 1649,1434.5C 1650.57,1435.98 1651.91,1437.65 1653,1439.5C 1658.16,1427.17 1664.33,1415.5 1671.5,1404.5 Z"/></g>
<g><path style="opacity:0.999" fill="#be68d1" d="M 878.5,1423.5 C 892.523,1447.69 912.19,1465.85 937.5,1478C 946.209,1481.59 955.209,1484.09 964.5,1485.5C 963.509,1514.76 963.175,1544.09 963.5,1573.5C 961.585,1573.22 959.919,1573.55 958.5,1574.5C 931.964,1575.55 905.63,1573.88 879.5,1569.5C 878.505,1520.91 878.172,1472.24 878.5,1423.5 Z"/></g>
<g><path style="opacity:0.999" fill="#b768d5" d="M 1057.5,1483.5 C 1058.49,1511.09 1058.82,1538.76 1058.5,1566.5C 1035.23,1570.89 1011.9,1573.22 988.5,1573.5C 987.502,1545.67 987.169,1517.67 987.5,1489.5C 989.586,1488.62 993.586,1487.95 999.5,1487.5C 1018.9,1487.05 1038.23,1485.72 1057.5,1483.5 Z"/></g>
<g><path style="opacity:0.999" fill="#bb68d3" d="M 964.5,1485.5 C 976.044,1487.27 987.711,1487.93 999.5,1487.5C 993.586,1487.95 989.586,1488.62 987.5,1489.5C 987.169,1517.67 987.502,1545.67 988.5,1573.5C 984.969,1574.23 981.303,1574.9 977.5,1575.5C 971.193,1575.75 964.86,1575.41 958.5,1574.5C 959.919,1573.55 961.585,1573.22 963.5,1573.5C 963.175,1544.09 963.509,1514.76 964.5,1485.5 Z"/></g>
<g><path style="opacity:0.998" fill="#e56aba" d="M 340.5,1538.5 C 345.766,1544.28 349.599,1550.95 352,1558.5C 354.106,1554.54 357.273,1553.54 361.5,1555.5C 363.543,1560.36 367.209,1562.36 372.5,1561.5C 372.676,1566.72 373.343,1571.89 374.5,1577C 370.657,1585.16 372.657,1587.16 380.5,1583C 382.167,1582.33 383.833,1582.33 385.5,1583C 390.798,1586.76 393.631,1591.93 394,1598.5C 394.833,1599.33 395.667,1600.17 396.5,1601C 393.466,1601.66 390.633,1601.16 388,1599.5C 387.667,1599.83 387.333,1600.17 387,1600.5C 379.973,1594.81 373.64,1588.47 368,1581.5C 366.086,1584.3 365.086,1587.3 365,1590.5C 368.611,1596.44 372.611,1602.11 377,1607.5C 383.036,1613.37 388.87,1619.37 394.5,1625.5C 395.827,1679.29 395.827,1732.96 394.5,1786.5C 373.521,1763.43 354.855,1738.09 338.5,1710.5C 338.879,1653 339.545,1595.67 340.5,1538.5 Z"/></g>
<g><path style="opacity:0.999" fill="#8c66ef" d="M 1671.5,1541.5 C 1672.5,1646.4 1672.83,1751.07 1672.5,1855.5C 1642.49,1882 1610.83,1906.34 1577.5,1928.5C 1577.83,1842.1 1577.5,1755.76 1576.5,1669.5C 1578.72,1669.82 1580.56,1669.16 1582,1667.5C 1584.22,1661.39 1587.22,1655.72 1591,1650.5C 1596.67,1643.17 1602.33,1635.83 1608,1628.5C 1611.64,1621.98 1613.64,1614.98 1614,1607.5C 1625.72,1603.46 1635.39,1596.46 1643,1586.5C 1653.52,1572.11 1663.02,1557.11 1671.5,1541.5 Z"/></g>
<g><path style="opacity:0.998" fill="#9366eb" d="M 1577.5,1549.5 C 1577.85,1557.03 1578.85,1564.36 1580.5,1571.5C 1579.28,1572.03 1578.11,1572.69 1577,1573.5C 1574.97,1580.29 1571.8,1586.45 1567.5,1592C 1570.88,1592.48 1573.55,1591.32 1575.5,1588.5C 1572.75,1585.95 1573.42,1584.95 1577.5,1585.5C 1575.41,1595.11 1569.74,1601.94 1560.5,1606C 1557.41,1606.59 1555.75,1605.25 1555.5,1602C 1556.79,1597.86 1559.13,1594.36 1562.5,1591.5C 1562.33,1591.17 1562.17,1590.83 1562,1590.5C 1556,1595.17 1550.67,1600.5 1546,1606.5C 1540,1615.83 1534,1625.17 1528,1634.5C 1523.04,1640.47 1517.21,1645.3 1510.5,1649C 1506.13,1650.67 1501.63,1651.84 1497,1652.5C 1493.36,1652.24 1492.86,1651.08 1495.5,1649C 1493.8,1644.6 1492.97,1640.1 1493,1635.5C 1493.5,1635 1494,1634.5 1494.5,1634C 1498.92,1633.82 1503.26,1633.65 1507.5,1633.5C 1510.62,1623.26 1515.78,1614.26 1523,1606.5C 1525.35,1602.8 1526.85,1598.8 1527.5,1594.5C 1530.53,1594.66 1533.36,1593.99 1536,1592.5C 1537.61,1593.82 1538.78,1595.48 1539.5,1597.5C 1541.22,1592.4 1543.72,1587.73 1547,1583.5C 1557.03,1571.97 1567.2,1560.64 1577.5,1549.5 Z"/></g>
<g><path style="opacity:1" fill="#e26abc" d="M 435.5,1623.5 C 435.685,1625.2 436.519,1626.53 438,1627.5C 438.5,1636.16 438.666,1644.83 438.5,1653.5C 438.499,1660.72 440.332,1667.72 444,1674.5C 448.133,1679.63 452.633,1684.47 457.5,1689C 454.406,1689.65 451.406,1689.32 448.5,1688C 446.323,1685.66 443.99,1683.49 441.5,1681.5C 441.027,1680.09 440.027,1679.43 438.5,1679.5C 436.008,1676.17 432.674,1674.67 428.5,1675C 431.715,1678.71 434.715,1682.54 437.5,1686.5C 438.155,1706.79 438.489,1727.12 438.5,1747.5C 438.699,1775.35 438.032,1803.02 436.5,1830.5C 427.172,1821.34 417.672,1812.34 408,1803.5C 403.667,1797.67 399.167,1792 394.5,1786.5C 395.827,1732.96 395.827,1679.29 394.5,1625.5C 405.442,1634.6 416.275,1643.93 427,1653.5C 429.702,1650.22 430.202,1646.56 428.5,1642.5C 429.376,1641.75 430.376,1641.25 431.5,1641C 423.873,1626.91 416.373,1612.75 409,1598.5C 402.711,1590.09 396.544,1581.59 390.5,1573C 391.545,1569.07 391.045,1565.24 389,1561.5C 381.315,1548.46 374.982,1534.8 370,1520.5C 367.589,1513.53 368.089,1506.87 371.5,1500.5C 377.495,1511.16 382.995,1522.16 388,1533.5C 389.667,1535.83 391.333,1538.17 393,1540.5C 395.644,1542.31 398.144,1544.31 400.5,1546.5C 397.995,1548.25 395.329,1549.75 392.5,1551C 401.151,1559.98 408.651,1569.81 415,1580.5C 418.43,1587.36 419.097,1594.36 417,1601.5C 417.333,1601.83 417.667,1602.17 418,1602.5C 419.25,1598.87 421.583,1597.87 425,1599.5C 423.058,1608.4 424.891,1616.4 430.5,1623.5C 432.199,1622.19 433.865,1622.19 435.5,1623.5 Z"/></g>
<g><path style="opacity:1" fill="#dd6abf" d="M 496.5,1636.5 C 495.925,1641.97 495.259,1647.3 494.5,1652.5C 494.167,1652.5 493.833,1652.5 493.5,1652.5C 493.5,1651.83 493.167,1651.5 492.5,1651.5C 490.121,1647.27 487.121,1643.44 483.5,1640C 472.7,1631.7 462.367,1622.87 452.5,1613.5C 445.87,1604.61 442.87,1594.61 443.5,1583.5C 447.559,1584.03 451.726,1583.7 456,1582.5C 459.499,1582.48 461.332,1584.15 461.5,1587.5C 460.238,1591.1 459.738,1594.77 460,1598.5C 470.789,1603.48 480.289,1610.32 488.5,1619C 491.509,1620.5 494.509,1622 497.5,1623.5C 494.9,1626.29 494.9,1629.13 497.5,1632C 495.212,1632.82 492.878,1633.49 490.5,1634C 492.407,1635.12 494.407,1635.96 496.5,1636.5 Z"/></g>
<g><path style="opacity:0.008" fill="#cd5ede" d="M 274.5,1607.5 C 275.5,1607.83 276.167,1608.5 276.5,1609.5C 275.167,1609.5 274.5,1608.83 274.5,1607.5 Z"/></g>
<g><path style="opacity:0.998" fill="#9366eb" d="M 1576.5,1616.5 C 1577.17,1623.17 1577.83,1629.83 1578.5,1636.5C 1572.65,1642.51 1566.32,1648.01 1559.5,1653C 1544.5,1663.33 1529.5,1673.67 1514.5,1684C 1510.96,1687.7 1507.3,1691.2 1503.5,1694.5C 1502.55,1689.59 1502.22,1684.59 1502.5,1679.5C 1506.51,1678.34 1510.51,1678.18 1514.5,1679C 1514.83,1678.67 1515.17,1678.33 1515.5,1678C 1510.83,1677.85 1509.16,1675.68 1510.5,1671.5C 1518.28,1671.42 1525.61,1669.58 1532.5,1666C 1535.99,1652.37 1543.65,1641.7 1555.5,1634C 1558.37,1633.88 1561.04,1633.22 1563.5,1632C 1561.47,1626.9 1562.47,1622.57 1566.5,1619C 1569.82,1618.06 1573.16,1617.22 1576.5,1616.5 Z"/></g>
<g><path style="opacity:1" fill="#de6abe" d="M 435.5,1623.5 C 446.806,1629.31 454.806,1638.14 459.5,1650C 458.852,1651.44 458.519,1652.94 458.5,1654.5C 462.182,1654.33 465.848,1654.5 469.5,1655C 470.333,1655.83 471.167,1656.67 472,1657.5C 472.43,1666.8 475.597,1674.97 481.5,1682C 485.508,1685.66 489.841,1688.83 494.5,1691.5C 494.5,1703.17 494.5,1714.83 494.5,1726.5C 484.868,1717.37 475.368,1708.04 466,1698.5C 466.512,1692.44 467.679,1686.44 469.5,1680.5C 468.91,1676.77 467.41,1676.11 465,1678.5C 464.153,1681.59 464.653,1684.42 466.5,1687C 465.5,1687.67 464.5,1687.67 463.5,1687C 453.448,1677.11 445.115,1665.95 438.5,1653.5C 438.666,1644.83 438.5,1636.16 438,1627.5C 436.519,1626.53 435.685,1625.2 435.5,1623.5 Z"/></g>
<g><path style="opacity:1" fill="#9266eb" d="M 1576.5,1669.5 C 1577.5,1755.76 1577.83,1842.1 1577.5,1928.5C 1553.58,1945.39 1528.58,1960.72 1502.5,1974.5C 1501.26,1894.23 1501.26,1813.9 1502.5,1733.5C 1505.28,1731.61 1508.28,1729.94 1511.5,1728.5C 1511.78,1721.8 1514.45,1716.3 1519.5,1712C 1529.18,1706.16 1539.18,1700.82 1549.5,1696C 1555.36,1692.51 1560.19,1688.01 1564,1682.5C 1565.5,1679.03 1565.67,1675.53 1564.5,1672C 1566.54,1667.78 1569.88,1666.45 1574.5,1668C 1575.42,1668.28 1576.08,1668.78 1576.5,1669.5 Z"/></g>
<g><path style="opacity:0.008" fill="#cf5ddc" d="M 438.5,1679.5 C 440.027,1679.43 441.027,1680.09 441.5,1681.5C 439.973,1681.57 438.973,1680.91 438.5,1679.5 Z"/></g>
<g><path style="opacity:0.995" fill="#9967e8" d="M 1502.5,1679.5 C 1502.22,1684.59 1502.55,1689.59 1503.5,1694.5C 1499.1,1699.21 1494.43,1703.71 1489.5,1708C 1483.91,1708.19 1478.57,1709.86 1473.5,1713C 1464.31,1719.95 1455.14,1726.11 1446,1731.5C 1437.88,1737.82 1428.72,1740.32 1418.5,1739C 1416.96,1738.71 1415.62,1738.04 1414.5,1737C 1425.14,1731.35 1435.8,1725.68 1446.5,1720C 1452.27,1716.23 1456.6,1711.23 1459.5,1705C 1462.17,1706.33 1464.83,1707.67 1467.5,1709C 1476.96,1696.36 1488.63,1686.52 1502.5,1679.5 Z"/></g>
<g><path style="opacity:0.999" fill="#d669c3" d="M 538.5,1680.5 C 548.438,1685.81 558.105,1691.64 567.5,1698C 578.534,1708.77 588.867,1720.1 598.5,1732C 602.391,1735.1 606.391,1737.93 610.5,1740.5C 609.883,1740.61 609.383,1740.94 609,1741.5C 608.515,1774.14 608.348,1806.47 608.5,1838.5C 586.549,1822.07 565.549,1804.24 545.5,1785C 544.216,1784.32 543.049,1784.48 542,1785.5C 541.503,1787.81 541.337,1790.14 541.5,1792.5C 540.167,1792.5 538.833,1792.5 537.5,1792.5C 537.173,1755.09 537.507,1717.76 538.5,1680.5 Z"/></g>
<g><path style="opacity:1" fill="#de6abe" d="M 437.5,1686.5 C 444.468,1692.66 451.468,1698.83 458.5,1705C 470.899,1713.52 483.233,1722.02 495.5,1730.5C 494.047,1731.82 494.381,1732.66 496.5,1733C 494.838,1783.79 493.838,1834.62 493.5,1885.5C 481.871,1874.87 470.871,1863.54 460.5,1851.5C 452.469,1844.49 444.469,1837.49 436.5,1830.5C 438.032,1803.02 438.699,1775.35 438.5,1747.5C 438.489,1727.12 438.155,1706.79 437.5,1686.5 Z"/></g>
<g><path style="opacity:0.999" fill="#db69c0" d="M 496.5,1636.5 C 499.767,1638.43 502.767,1640.76 505.5,1643.5C 516.273,1656.05 527.273,1668.39 538.5,1680.5C 537.507,1717.76 537.173,1755.09 537.5,1792.5C 532.046,1791.07 526.713,1789.57 521.5,1788C 528.09,1792.75 533.423,1798.59 537.5,1805.5C 537.5,1844.17 537.5,1882.83 537.5,1921.5C 526.451,1914.2 516.451,1906.37 507.5,1898C 501.998,1894.66 497.332,1890.49 493.5,1885.5C 493.838,1834.62 494.838,1783.79 496.5,1733C 494.381,1732.66 494.047,1731.82 495.5,1730.5C 496.239,1730.63 496.906,1730.46 497.5,1730C 496.29,1728.96 495.29,1727.79 494.5,1726.5C 494.5,1714.83 494.5,1703.17 494.5,1691.5C 505.52,1698.37 512.187,1708.21 514.5,1721C 518.042,1721.18 521.042,1719.85 523.5,1717C 525.167,1716.67 526.833,1716.33 528.5,1716C 524.794,1708.75 520.961,1701.59 517,1694.5C 512.779,1689.31 507.612,1685.48 501.5,1683C 502.406,1681.3 502.739,1679.47 502.5,1677.5C 505.563,1677.86 508.563,1678.53 511.5,1679.5C 513.623,1679.78 514.956,1678.95 515.5,1677C 512.416,1671.97 508.083,1669.31 502.5,1669C 501.38,1666.68 499.38,1664.51 496.5,1662.5C 494.098,1667.85 495.765,1670.18 501.5,1669.5C 501.592,1673.07 499.926,1674.24 496.5,1673C 489.373,1667.79 484.706,1661.29 482.5,1653.5C 484.811,1647.76 488.145,1647.09 492.5,1651.5C 493.167,1651.5 493.5,1651.83 493.5,1652.5C 493.833,1653.83 494.167,1653.83 494.5,1652.5C 495.259,1647.3 495.925,1641.97 496.5,1636.5 Z"/></g>
<g><path style="opacity:1" fill="#9767e8" d="M 1502.5,1733.5 C 1501.26,1813.9 1501.26,1894.23 1502.5,1974.5C 1479.76,1987.2 1456.43,1998.87 1432.5,2009.5C 1431.68,2006.36 1431.18,2003.03 1431,1999.5C 1430.22,1925.16 1430.39,1850.83 1431.5,1776.5C 1441.07,1771.71 1450.74,1766.88 1460.5,1762C 1474.07,1751.73 1488.07,1742.23 1502.5,1733.5 Z"/></g>
<g><path style="opacity:0.999" fill="#d269c6" d="M 610.5,1740.5 C 612.484,1740.38 614.15,1741.05 615.5,1742.5C 614.294,1745.08 612.961,1747.58 611.5,1750C 618.897,1751.37 625.564,1754.37 631.5,1759C 640.811,1759.88 641.478,1762.21 633.5,1766C 649.395,1776.44 665.395,1786.61 681.5,1796.5C 680.448,1796.35 679.448,1796.52 678.5,1797C 679.832,1823.93 679.832,1850.76 678.5,1877.5C 661.528,1868.05 644.195,1859.21 626.5,1851C 626.833,1850.67 627.167,1850.33 627.5,1850C 620.996,1846.3 614.662,1842.47 608.5,1838.5C 608.348,1806.47 608.515,1774.14 609,1741.5C 609.383,1740.94 609.883,1740.61 610.5,1740.5 Z"/></g>
<g><path style="opacity:1" fill="#9c67e6" d="M 1431.5,1776.5 C 1430.39,1850.83 1430.22,1925.16 1431,1999.5C 1431.18,2003.03 1431.68,2006.36 1432.5,2009.5C 1426.56,2012.93 1420.22,2015.6 1413.5,2017.5C 1412.67,2011.68 1412.17,2005.68 1412,1999.5C 1411.72,1927.76 1411.55,1856.09 1411.5,1784.5C 1418.08,1781.64 1424.75,1778.97 1431.5,1776.5 Z"/></g>
<g><path style="opacity:1" fill="#9f67e4" d="M 1411.5,1784.5 C 1411.55,1856.09 1411.72,1927.76 1412,1999.5C 1412.17,2005.68 1412.67,2011.68 1413.5,2017.5C 1382.96,2030.88 1351.29,2042.55 1318.5,2052.5C 1317.17,1979.33 1317.17,1906.17 1318.5,1833C 1316.49,1832.92 1315.49,1832.42 1315.5,1831.5C 1317.65,1831.63 1319.65,1831.13 1321.5,1830C 1326.33,1826.42 1331.33,1823.09 1336.5,1820C 1338.02,1818.12 1339.02,1815.95 1339.5,1813.5C 1340.67,1812.42 1342,1811.58 1343.5,1811C 1347.73,1810.07 1351.9,1808.9 1356,1807.5C 1356.87,1807.74 1357.71,1808.07 1358.5,1808.5C 1375.84,1799.66 1393.5,1791.66 1411.5,1784.5 Z"/></g>
<g><path style="opacity:1" fill="#cf69c8" d="M 681.5,1796.5 C 684.85,1797.5 688.183,1798.5 691.5,1799.5C 693.479,1827.61 694.145,1855.94 693.5,1884.5C 688.928,1882.06 683.928,1879.72 678.5,1877.5C 679.832,1850.76 679.832,1823.93 678.5,1797C 679.448,1796.52 680.448,1796.35 681.5,1796.5 Z"/></g>
<g><path style="opacity:0.997" fill="#ca69ca" d="M 691.5,1799.5 C 696.214,1799.8 700.88,1800.47 705.5,1801.5C 708.258,1815.42 716.591,1823.92 730.5,1827C 740.231,1829.08 749.898,1831.41 759.5,1834C 767.754,1836.62 773.754,1841.78 777.5,1849.5C 782.492,1850.33 787.492,1851 792.5,1851.5C 792.5,1880.17 792.5,1908.83 792.5,1937.5C 788.617,1937.89 784.95,1937.22 781.5,1935.5C 780.769,1932.49 781.436,1929.65 783.5,1927C 752.519,1912.65 722.519,1898.49 693.5,1884.5C 694.145,1855.94 693.479,1827.61 691.5,1799.5 Z"/></g>
<g><path style="opacity:0.999" fill="#d669c3" d="M 537.5,1805.5 C 539.63,1809.51 541.13,1813.85 542,1818.5C 546.55,1816.65 550.716,1814.48 554.5,1812C 556,1814.17 557.5,1816.33 559,1818.5C 559.14,1820.52 559.307,1822.35 559.5,1824C 566.324,1826.91 572.658,1830.58 578.5,1835C 588.067,1842.75 597.733,1850.25 607.5,1857.5C 608.078,1894.73 608.078,1931.73 607.5,1968.5C 587.479,1957.2 567.646,1944.2 548,1929.5C 547.667,1929.83 547.333,1930.17 547,1930.5C 543.99,1927.32 540.824,1924.32 537.5,1921.5C 537.5,1882.83 537.5,1844.17 537.5,1805.5 Z"/></g>
<g><path style="opacity:0.999" fill="#a467e1" d="M 1315.5,1831.5 C 1315.49,1832.42 1316.49,1832.92 1318.5,1833C 1317.17,1906.17 1317.17,1979.33 1318.5,2052.5C 1303.25,2056.81 1287.92,2060.81 1272.5,2064.5C 1271.19,2053.73 1270.52,2042.73 1270.5,2031.5C 1269.46,1966.83 1269.46,1902.17 1270.5,1837.5C 1284.68,1833.74 1299.01,1831.24 1313.5,1830C 1314.42,1830.28 1315.08,1830.78 1315.5,1831.5 Z"/></g>
<g><path style="opacity:0.999" fill="#a767df" d="M 1270.5,1837.5 C 1269.46,1902.17 1269.46,1966.83 1270.5,2031.5C 1270.52,2042.73 1271.19,2053.73 1272.5,2064.5C 1259.66,2067.93 1246.66,2070.6 1233.5,2072.5C 1232.76,2045.66 1232.09,2018.66 1231.5,1991.5C 1232.63,1945.51 1232.79,1899.51 1232,1853.5C 1231.33,1854.25 1230.5,1854.59 1229.5,1854.5C 1242.18,1846.71 1255.84,1841.04 1270.5,1837.5 Z"/></g>
<g><path style="opacity:1" fill="#c569cd" d="M 844.5,1867.5 C 844.832,1933 844.499,1998.34 843.5,2063.5C 825.726,2059.68 808.393,2054.68 791.5,2048.5C 792.498,2013.67 792.832,1978.67 792.5,1943.5C 796.226,1943.82 799.893,1943.49 803.5,1942.5C 801.821,1936.63 798.155,1934.96 792.5,1937.5C 792.5,1908.83 792.5,1880.17 792.5,1851.5C 799.146,1854.04 804.313,1852.37 808,1846.5C 809.122,1848.62 810.622,1850.46 812.5,1852C 816.419,1853.54 819.919,1855.71 823,1858.5C 823.769,1861.1 823.602,1863.6 822.5,1866C 830.011,1866.17 837.345,1866.67 844.5,1867.5 Z"/></g>
<g><path style="opacity:1" fill="#ab68dd" d="M 1229.5,1854.5 C 1230.5,1854.59 1231.33,1854.25 1232,1853.5C 1232.79,1899.51 1232.63,1945.51 1231.5,1991.5C 1232.09,2018.66 1232.76,2045.66 1233.5,2072.5C 1204.44,2078.34 1175.1,2083.34 1145.5,2087.5C 1146.82,2072.89 1147.48,2058.05 1147.5,2043C 1146.72,1987.43 1146.39,1931.93 1146.5,1876.5C 1148.14,1875.68 1149.81,1874.85 1151.5,1874C 1150.29,1872.89 1150.29,1871.72 1151.5,1870.5C 1151.17,1869.5 1150.5,1868.83 1149.5,1868.5C 1144.6,1870.15 1139.6,1870.98 1134.5,1871C 1136.18,1867.38 1136.85,1863.55 1136.5,1859.5C 1146.33,1857.25 1153.33,1860.59 1157.5,1869.5C 1161.43,1870.01 1164.93,1871.34 1168,1873.5C 1170.88,1870.96 1174.05,1868.79 1177.5,1867C 1172.18,1867.43 1166.85,1867.76 1161.5,1868C 1159.38,1867.74 1157.72,1866.74 1156.5,1865C 1177.69,1856.83 1199.69,1853.16 1222.5,1854C 1224.95,1855.06 1227.28,1855.23 1229.5,1854.5 Z"/></g>
<g><path style="opacity:0.999" fill="#d269c6" d="M 607.5,1857.5 C 611.379,1859.27 615.379,1860.77 619.5,1862C 624.648,1869.48 631.315,1875.15 639.5,1879C 652.401,1885.46 665.401,1891.63 678.5,1897.5C 678.333,1931.5 678.5,1965.5 679,1999.5C 678.84,2002.51 680.007,2004.68 682.5,2006C 682.272,2006.4 681.938,2006.57 681.5,2006.5C 655.855,1995.35 631.188,1982.68 607.5,1968.5C 608.078,1931.73 608.078,1894.73 607.5,1857.5 Z"/></g>
<g><path style="opacity:0.999" fill="#c268cf" d="M 844.5,1867.5 C 856.125,1868.06 867.459,1869.73 878.5,1872.5C 877.501,1938.66 877.168,2005 877.5,2071.5C 866.033,2070.22 854.7,2067.55 843.5,2063.5C 844.499,1998.34 844.832,1933 844.5,1867.5 Z"/></g>
<g><path style="opacity:0.999" fill="#be68d1" d="M 878.5,1872.5 C 906.361,1877.7 934.361,1882.03 962.5,1885.5C 962.83,1951.57 962.496,2017.57 961.5,2083.5C 943.769,2081.53 925.769,2079.2 907.5,2076.5C 906.228,2076.57 905.062,2076.9 904,2077.5C 902.991,2076.34 901.658,2075.68 900,2075.5C 896.923,2074.54 893.923,2074.54 891,2075.5C 886.782,2073.48 882.282,2072.15 877.5,2071.5C 877.168,2005 877.501,1938.66 878.5,1872.5 Z"/></g>
<g><path style="opacity:1" fill="#b768d6" d="M 1057.5,1883.5 C 1056.84,1954.17 1057.5,2024.51 1059.5,2094.5C 1059.08,2095.12 1058.42,2095.46 1057.5,2095.5C 1048.86,2094.72 1040.19,2094.22 1031.5,2094C 1015.77,2091.82 1000.1,2089.32 984.5,2086.5C 986.491,2020.71 987.158,1954.71 986.5,1888.5C 985.448,1888.65 984.448,1888.48 983.5,1888C 985.708,1887.81 987.708,1887.31 989.5,1886.5C 997.245,1886.73 1004.91,1886.07 1012.5,1884.5C 1016.08,1886.8 1020.08,1888.3 1024.5,1889C 1027.61,1890.45 1030.45,1892.29 1033,1894.5C 1036.41,1893.54 1039.25,1891.71 1041.5,1889C 1029.55,1886.85 1018.22,1883.02 1007.5,1877.5C 1008,1877.17 1008.5,1876.83 1009,1876.5C 1018.82,1876.14 1028.65,1876.81 1038.5,1878.5C 1042.15,1878.51 1045.48,1877.51 1048.5,1875.5C 1051.89,1876.97 1053.23,1879.63 1052.5,1883.5C 1054.17,1883.5 1055.83,1883.5 1057.5,1883.5 Z"/></g>
<g><path style="opacity:0.999" fill="#b268d8" d="M 1118.5,1879.5 C 1124.32,1880.33 1130.32,1880.83 1136.5,1881C 1133.85,1881.5 1131.19,1881.66 1128.5,1881.5C 1127.67,1950.84 1127.67,2020.17 1128.5,2089.5C 1119.78,2090.94 1110.94,2092.27 1102,2093.5C 1101.67,2093.17 1101.33,2092.83 1101,2092.5C 1087.13,2094.36 1073.29,2095.02 1059.5,2094.5C 1057.5,2024.51 1056.84,1954.17 1057.5,1883.5C 1068.58,1881.2 1079.92,1879.7 1091.5,1879C 1094.47,1877.73 1097.47,1876.57 1100.5,1875.5C 1103.28,1876.39 1105.95,1877.56 1108.5,1879C 1111.82,1879.5 1115.15,1879.67 1118.5,1879.5 Z"/></g>
<g><path style="opacity:1" fill="#ae68db" d="M 1146.5,1876.5 C 1146.39,1931.93 1146.72,1987.43 1147.5,2043C 1147.48,2058.05 1146.82,2072.89 1145.5,2087.5C 1140.67,2088.23 1135.51,2089.23 1130,2090.5C 1129.62,2089.94 1129.12,2089.61 1128.5,2089.5C 1127.67,2020.17 1127.67,1950.84 1128.5,1881.5C 1131.19,1881.66 1133.85,1881.5 1136.5,1881C 1130.32,1880.83 1124.32,1880.33 1118.5,1879.5C 1128.09,1880.22 1137.42,1879.22 1146.5,1876.5 Z"/></g>
<g><path style="opacity:1" fill="#bb69d3" d="M 962.5,1885.5 C 971.467,1886.38 980.467,1886.72 989.5,1886.5C 987.708,1887.31 985.708,1887.81 983.5,1888C 984.448,1888.48 985.448,1888.65 986.5,1888.5C 987.158,1954.71 986.491,2020.71 984.5,2086.5C 976.848,2085.42 969.181,2084.42 961.5,2083.5C 962.496,2017.57 962.83,1951.57 962.5,1885.5 Z"/></g>
<g><path style="opacity:1" fill="#ce69c8" d="M 678.5,1897.5 C 684.546,1899.95 690.213,1902.95 695.5,1906.5C 693.665,1931.98 692.665,1957.81 692.5,1984C 692.737,1992.84 693.07,2001.67 693.5,2010.5C 692.5,2010.5 691.5,2010.5 690.5,2010.5C 687.234,2010.35 684.234,2009.02 681.5,2006.5C 681.938,2006.57 682.272,2006.4 682.5,2006C 680.007,2004.68 678.84,2002.51 679,1999.5C 678.5,1965.5 678.333,1931.5 678.5,1897.5 Z"/></g>
<g><path style="opacity:0.998" fill="#ca69ca" d="M 695.5,1906.5 C 706.127,1911.15 715.793,1917.31 724.5,1925C 731.606,1925.28 738.606,1926.28 745.5,1928C 756.167,1932.33 766.833,1936.67 777.5,1941C 782.412,1942.42 787.412,1943.25 792.5,1943.5C 792.832,1978.67 792.498,2013.67 791.5,2048.5C 756.794,2038.16 723.127,2025.49 690.5,2010.5C 691.5,2010.5 692.5,2010.5 693.5,2010.5C 693.07,2001.67 692.737,1992.84 692.5,1984C 692.665,1957.81 693.665,1931.98 695.5,1906.5 Z"/></g>
</svg>
